<svg xmlns="http://www.w3.org/2000/svg" xmlns:xlink="http://www.w3.org/1999/xlink" width="62" height="62" viewBox="0 0 62 62">
  <defs>
    <linearGradient id="linear-gradient" x1="-1.585" y1="2.752" x2="1.956" y2="-1.33" gradientUnits="objectBoundingBox">
      <stop offset="0" stop-color="#df1c4d"/>
      <stop offset="0.048" stop-color="#ca1e5d"/>
      <stop offset="0.119" stop-color="#b32170"/>
      <stop offset="0.196" stop-color="#a2247e"/>
      <stop offset="0.279" stop-color="#982586"/>
      <stop offset="0.383" stop-color="#952689"/>
      <stop offset="0.498" stop-color="#902a8b"/>
      <stop offset="0.634" stop-color="#833993"/>
      <stop offset="0.781" stop-color="#6d51a1"/>
      <stop offset="0.935" stop-color="#4f72b4"/>
      <stop offset="0.95" stop-color="#4c76b6"/>
    </linearGradient>
    <linearGradient id="linear-gradient-2" x1="-0.182" y1="1.079" x2="1.128" y2="-0.243" xlink:href="#linear-gradient"/>
    <linearGradient id="linear-gradient-3" x1="-0.625" y1="1.464" x2="2.32" y2="-0.718" xlink:href="#linear-gradient"/>
    <linearGradient id="linear-gradient-4" x1="-3.229" y1="12.32" x2="2.69" y2="-6.442" xlink:href="#linear-gradient"/>
    <linearGradient id="linear-gradient-5" x1="-3.595" y1="13.485" x2="2.323" y2="-5.282" xlink:href="#linear-gradient"/>
    <linearGradient id="linear-gradient-6" x1="-2.908" y1="10.833" x2="2.995" y2="-7.837" xlink:href="#linear-gradient"/>
  </defs>
  <g id="Group_228" data-name="Group 228" transform="translate(-3572.09 779.01)">
    <g id="Group_169" data-name="Group 169" transform="translate(3573.09 -778.01)">
      <circle id="Ellipse_22" data-name="Ellipse 22" cx="30" cy="30" r="30" fill="#fff" stroke="#72007b" stroke-miterlimit="10" stroke-width="2"/>
    </g>
    <g id="Group_170" data-name="Group 170" transform="translate(3586.176 -760.99)">
      <path id="Path_65" data-name="Path 65" d="M3663.108-687.163a1.821,1.821,0,0,1-.728-.519q-1.845-1.862-3.7-3.71a.937.937,0,0,1-.3-.917.931.931,0,0,1,1.531-.5c.239.209.456.445.681.669l2.55,2.549c.045.045.093.089.174.165a1.736,1.736,0,0,1,.146-.194q2.865-2.868,5.73-5.735a.964.964,0,0,1,1.042-.3,1,1,0,0,1,.64.727v.351a1.858,1.858,0,0,1-.512.715q-3.094,3.088-6.181,6.183a1.607,1.607,0,0,1-.757.513Z" transform="translate(-3632.644 715.937)" fill="url(#linear-gradient)"/>
      <path id="Path_66" data-name="Path 66" d="M3625.565-716.224l.271,1.891h-.2q-10.775,0-21.55,0a2.824,2.824,0,0,1-2.923-2.929q0-10.287,0-20.574a2.807,2.807,0,0,1,2.332-2.83,3.1,3.1,0,0,1,.582-.046q14.012,0,28.024,0a2.815,2.815,0,0,1,2.86,2.3,2.866,2.866,0,0,1,.053.561q0,7.089,0,14.178v.169l-1.763-.26v-.245q0-6.621,0-13.242a1.587,1.587,0,0,0-.243-.946,1.368,1.368,0,0,0-1.112-.623c-.078,0-.156,0-.234,0q-13.553,0-27.107,0a1.49,1.49,0,0,0-1.3.577,1.312,1.312,0,0,0-.271.777c0,.052,0,.1,0,.156q0,9.79,0,19.58a1.385,1.385,0,0,0,.865,1.394,1.681,1.681,0,0,0,.644.114c1.457.009,2.913,0,4.369,0l16.459,0Z" transform="translate(-3601.163 740.714)" fill="url(#linear-gradient-2)"/>
      <path id="Path_67" data-name="Path 67" d="M3620.234-719.876c.489.322,1.015.612,1.477.982a7.343,7.343,0,0,1,2.818,5.215c.021.213.032.428.033.642a.938.938,0,0,1-.914.969.935.935,0,0,1-.96-.942,5.434,5.434,0,0,0-1.219-3.482,5.384,5.384,0,0,0-5.78-1.97,5.4,5.4,0,0,0-4.2,4.5c-.07.347-.058.711-.105,1.064a.928.928,0,0,1-1,.828.954.954,0,0,1-.869-1,7.914,7.914,0,0,1,.438-2.444,7.519,7.519,0,0,1,3.83-4.272l.117-.059a4.648,4.648,0,0,1-1.534-3.924,4.507,4.507,0,0,1,1.543-3.077,4.7,4.7,0,0,1,6.436.149A4.72,4.72,0,0,1,3620.234-719.876Zm-3.081-6.295a2.829,2.829,0,0,0-2.925,2.62,2.832,2.832,0,0,0,2.627,3.014,2.826,2.826,0,0,0,3.007-2.716A2.825,2.825,0,0,0,3617.154-726.171Z" transform="translate(-3605.76 733.743)" fill="url(#linear-gradient-3)"/>
      <path id="Path_68" data-name="Path 68" d="M3658.883-713.616h-7.49v-1.858h7.49Z" transform="translate(-3628.813 726.82)" fill="url(#linear-gradient-4)"/>
      <path id="Path_69" data-name="Path 69" d="M3651.389-726.186v-1.858h7.49v1.858Z" transform="translate(-3628.811 733.74)" fill="url(#linear-gradient-5)"/>
      <path id="Path_70" data-name="Path 70" d="M3651.386-701.067v-1.854h7.482c.057.164.03.259-.166.314a7.345,7.345,0,0,0-2.733,1.447.422.422,0,0,1-.238.1c-1.417.006-2.833,0-4.25,0A.806.806,0,0,1,3651.386-701.067Z" transform="translate(-3628.81 719.91)" fill="url(#linear-gradient-6)"/>
    </g>
  </g>
</svg>
