<svg xmlns="http://www.w3.org/2000/svg" xmlns:xlink="http://www.w3.org/1999/xlink" width="62" height="62" viewBox="0 0 62 62">
  <defs>
    <linearGradient id="linear-gradient" x1="-3.038" y1="15.942" x2="2.27" y2="-7.222" gradientUnits="objectBoundingBox">
      <stop offset="0" stop-color="#df1c4d"/>
      <stop offset="0.048" stop-color="#ca1e5d"/>
      <stop offset="0.119" stop-color="#b32170"/>
      <stop offset="0.196" stop-color="#a2247e"/>
      <stop offset="0.279" stop-color="#982586"/>
      <stop offset="0.383" stop-color="#952689"/>
      <stop offset="0.498" stop-color="#902a8b"/>
      <stop offset="0.634" stop-color="#833993"/>
      <stop offset="0.781" stop-color="#6d51a1"/>
      <stop offset="0.935" stop-color="#4f72b4"/>
      <stop offset="0.95" stop-color="#4c76b6"/>
    </linearGradient>
    <linearGradient id="linear-gradient-2" x1="-2.799" y1="14.89" x2="2.508" y2="-8.26" xlink:href="#linear-gradient"/>
    <linearGradient id="linear-gradient-3" x1="-4.233" y1="14.293" x2="3.698" y2="-8.82" xlink:href="#linear-gradient"/>
    <linearGradient id="linear-gradient-4" x1="-0.236" y1="1.197" x2="1.208" y2="-0.171" xlink:href="#linear-gradient"/>
    <linearGradient id="linear-gradient-5" x1="-0.915" y1="1.608" x2="2.333" y2="-0.65" xlink:href="#linear-gradient"/>
  </defs>
  <g id="Group_227" data-name="Group 227" transform="translate(-3416.796 779.01)">
    <g id="Group_166" data-name="Group 166" transform="translate(3417.796 -778.01)">
      <circle id="Ellipse_21" data-name="Ellipse 21" cx="30" cy="30" r="30" fill="#fff" stroke="#72007b" stroke-miterlimit="10" stroke-width="2"/>
    </g>
    <g id="Group_167" data-name="Group 167" transform="translate(3429.338 -761.696)">
      <path id="Path_60" data-name="Path 60" d="M3496.737-721.482h-4.325c-.568,0-.6-.027-.6-.573.007-1.205-.148-1.083,1.081-1.085q4.057,0,8.115,0c.6,0,.619.017.617.63,0,1.146.112,1.022-1.024,1.026C3499.314-721.479,3498.026-721.482,3496.737-721.482Z" transform="translate(-3469.648 731.465)" fill="url(#linear-gradient)"/>
      <path id="Path_61" data-name="Path 61" d="M3496.715-712.7q2.182,0,4.364,0c.509,0,.548.037.547.545,0,1.259.132,1.108-1.093,1.11q-4.038.006-8.076,0c-.632,0-.646-.011-.643-.643.005-1.1-.126-1.013,1-1.014Z" transform="translate(-3469.648 725.933)" fill="url(#linear-gradient-2)"/>
      <path id="Path_62" data-name="Path 62" d="M3501.972-700.609c-.918,0-1.837-.009-2.756,0-.36.006-.5-.126-.5-.492.024-1.353-.148-1.158,1.156-1.166,1.608-.011,3.216,0,4.823,0,.556,0,.589.03.587.584,0,1.2.121,1.065-1.056,1.072-.753,0-1.506,0-2.259,0Z" transform="translate(-3473.308 720.406)" fill="url(#linear-gradient-3)"/>
      <path id="Path_63" data-name="Path 63" d="M3480.76-722.68q0-1.578,0-3.157,0-5.942,0-11.885c0-.016,0-.031,0-.046v-.026a3.036,3.036,0,0,0-.057-.6c-.006-.031-.019-.059-.026-.091a3.342,3.342,0,0,0-.113-.39c-.008-.023-.015-.046-.023-.068a3.016,3.016,0,0,0-.211-.435l-.023-.039a2.871,2.871,0,0,0-.287-.395l-.014-.016a2.886,2.886,0,0,0-.772-.622l-.022-.013a3.093,3.093,0,0,0-.431-.19l-.081-.027a3.206,3.206,0,0,0-.45-.112l-.094-.013a3.624,3.624,0,0,0-.486-.039h-29.89a3.332,3.332,0,0,0-.62.049,2.993,2.993,0,0,0-2.486,3.017q0,3.355,0,6.711h0v.181q0,1.609,0,3.218,0,5.912,0,11.825c0,.016,0,.031,0,.047v.025a3.077,3.077,0,0,0,.056.6c.007.032.019.059.026.091a3.165,3.165,0,0,0,.112.39c.009.023.015.046.023.068a3.074,3.074,0,0,0,.212.435l.023.039a2.924,2.924,0,0,0,.287.395l.014.016a2.875,2.875,0,0,0,.773.622l.022.013a3.059,3.059,0,0,0,.431.19l.08.027a3.233,3.233,0,0,0,.451.112c.031.005.062.008.093.013a3.542,3.542,0,0,0,.486.039h29.891a3.339,3.339,0,0,0,.62-.049,2.993,2.993,0,0,0,2.486-3.017V-722.5h0Zm-1.946,6.34c0,.055,0,.111,0,.166a1.4,1.4,0,0,1-.29.829,1.59,1.59,0,0,1-1.381.615q-3.228,0-6.455,0v-.006h-.259l-17.547,0c-1.552,0-3.1,0-4.657-.005a1.809,1.809,0,0,1-.687-.121,1.476,1.476,0,0,1-.922-1.486q0-10.436,0-20.873c0-.056,0-.111,0-.166a1.4,1.4,0,0,1,.29-.829,1.59,1.59,0,0,1,1.381-.615q3.228,0,6.455,0v.006H3455l17.547,0c1.552,0,3.1,0,4.657.005a1.789,1.789,0,0,1,.687.121,1.476,1.476,0,0,1,.922,1.486Q3478.812-726.777,3478.814-716.34Z" transform="translate(-3444.671 740.844)" fill="url(#linear-gradient-4)"/>
      <path id="Path_64" data-name="Path 64" d="M3466.944-721.907c.522.343,1.082.653,1.574,1.048a7.828,7.828,0,0,1,3,5.559c.022.228.034.456.035.685a1,1,0,0,1-.975,1.032,1,1,0,0,1-1.024-1,5.794,5.794,0,0,0-1.3-3.712,5.74,5.74,0,0,0-6.162-2.1,5.757,5.757,0,0,0-4.474,4.8c-.075.371-.062.758-.112,1.135a.989.989,0,0,1-1.071.883,1.018,1.018,0,0,1-.927-1.066,8.422,8.422,0,0,1,.468-2.606,8.011,8.011,0,0,1,4.083-4.554l.125-.064a4.953,4.953,0,0,1-1.635-4.183,4.8,4.8,0,0,1,1.645-3.28,5.008,5.008,0,0,1,6.861.159A5.032,5.032,0,0,1,3466.944-721.907Zm-3.284-6.711a3.017,3.017,0,0,0-3.118,2.794,3.019,3.019,0,0,0,2.8,3.213,3.012,3.012,0,0,0,3.205-2.9A3.012,3.012,0,0,0,3463.66-728.618Z" transform="translate(-3450.416 735.427)" fill="url(#linear-gradient-5)"/>
    </g>
  </g>
</svg>
