<svg xmlns="http://www.w3.org/2000/svg" xmlns:xlink="http://www.w3.org/1999/xlink" width="62" height="62" viewBox="0 0 62 62">
  <defs>
    <linearGradient id="linear-gradient" x1="-0.233" y1="1.106" x2="0.969" y2="-0.027" gradientUnits="objectBoundingBox">
      <stop offset="0" stop-color="#df1c4d"/>
      <stop offset="0.048" stop-color="#ca1e5d"/>
      <stop offset="0.119" stop-color="#b32170"/>
      <stop offset="0.196" stop-color="#a2247e"/>
      <stop offset="0.279" stop-color="#982586"/>
      <stop offset="0.383" stop-color="#952689"/>
      <stop offset="0.498" stop-color="#902a8b"/>
      <stop offset="0.634" stop-color="#833993"/>
      <stop offset="0.781" stop-color="#6d51a1"/>
      <stop offset="0.935" stop-color="#4f72b4"/>
      <stop offset="0.95" stop-color="#4c76b6"/>
    </linearGradient>
    <linearGradient id="linear-gradient-2" x1="-0.537" y1="1.39" x2="1.192" y2="-0.249" xlink:href="#linear-gradient"/>
    <linearGradient id="linear-gradient-3" x1="-2.683" y1="5.23" x2="2.482" y2="-2.748" xlink:href="#linear-gradient"/>
    <linearGradient id="linear-gradient-4" x1="-0.965" y1="2.155" x2="1.479" y2="-0.606" xlink:href="#linear-gradient"/>
  </defs>
  <g id="Group_230" data-name="Group 230" transform="translate(-3882.678 779.01)">
    <g id="Group_175" data-name="Group 175" transform="translate(3883.678 -778.01)">
      <circle id="Ellipse_24" data-name="Ellipse 24" cx="30" cy="30" r="30" transform="translate(0)" fill="#fff" stroke="#72007b" stroke-miterlimit="10" stroke-width="2"/>
    </g>
    <g id="Group_178" data-name="Group 178" transform="translate(3899.039 -764.458)">
      <g id="Group_176" data-name="Group 176" transform="translate(0 0)">
        <path id="Path_75" data-name="Path 75" d="M3947.755-738.98c-.01-.732-.019-1.463-.026-2.2-.007-.752-.236-.981-1.021-1.019l-.255-.013c-.972-.047-1.977-.094-2.966-.223a17.269,17.269,0,0,1-9.623-4.465,5.947,5.947,0,0,0-.634-.48l-.2-.137h-.227c-.069.047-.137.1-.208.143a6.569,6.569,0,0,0-.654.5,17.5,17.5,0,0,1-10.175,4.521c-.657.068-1.321.1-1.963.126-.272.011-.544.023-.816.039-.581.03-.876.3-.878.793,0,.765,0,1.527-.009,2.292-.013,2.229-.026,4.534.024,6.8a27.684,27.684,0,0,0,1.116,7.237,18.194,18.194,0,0,0,6.044,9.188,23.874,23.874,0,0,0,7.374,3.943,1,1,0,0,0,.6-.032l.287-.112c1.086-.426,2.21-.865,3.255-1.392a19.975,19.975,0,0,0,5.1-3.615,6.393,6.393,0,0,1-1.732-.4,16.922,16.922,0,0,1-2.767,1.968,31.417,31.417,0,0,1-2.865,1.4c-.392.175-.784.351-1.171.533a1.09,1.09,0,0,1-.45.1.9.9,0,0,1-.3-.049,20.815,20.815,0,0,1-7.8-4.769,16.989,16.989,0,0,1-4.536-8.641,37.337,37.337,0,0,1-.737-8.159c0-1.1.022-2.225.036-3.309l.019-1.356c0-.09.007-.18.013-.27l.03-.551.443-.056c.379-.049.756-.092,1.131-.137.816-.094,1.587-.184,2.36-.317a18.05,18.05,0,0,0,8.654-4.041.955.955,0,0,1,1.392,0,18.268,18.268,0,0,0,9.415,4.161c.6.081,1.2.146,1.833.212.292.032.585.063.878.1l.444.05.039.537a2.672,2.672,0,0,1,.017.289c0,.82,0,1.64.006,2.459.01,1.865.023,3.795-.062,5.694-.039.857-.107,1.681-.212,2.474a6.636,6.636,0,0,1,1.311,1.081,37.034,37.034,0,0,0,.5-5.928C3947.8-735.669,3947.777-737.352,3947.755-738.98Z" transform="translate(-3918.091 747.512)" fill="url(#linear-gradient)"/>
      </g>
      <path id="Path_76" data-name="Path 76" d="M3948.55-730.939c-.006-.707-.315-1.007-1.028-1.041s-1.426-.064-2.133-.156a11.194,11.194,0,0,1-6.262-2.906,7.733,7.733,0,0,0-.686-.507h-.385a8.426,8.426,0,0,0-.7.523,11.328,11.328,0,0,1-6.626,2.943c-.613.066-1.231.077-1.848.109a.868.868,0,0,0-.927.891c-.006,2.037-.037,4.076.008,6.11a18.78,18.78,0,0,0,.765,4.951,12.508,12.508,0,0,0,4.174,6.346,16.412,16.412,0,0,0,5.058,2.7,1.021,1.021,0,0,0,.649-.026c.812-.319,1.63-.632,2.407-1.022a14.782,14.782,0,0,0,1.709-1,6.591,6.591,0,0,1-.9-1.471c-.242.165-.491.319-.748.467-.856.493-1.784.863-2.681,1.283a.334.334,0,0,1-.227.022,13.638,13.638,0,0,1-5.106-3.116,11.127,11.127,0,0,1-2.949-5.624,24.8,24.8,0,0,1-.486-5.4c0-1.041.023-2.084.036-3.127,0-.079.008-.158.013-.236.8-.1,1.587-.174,2.36-.309a12.413,12.413,0,0,0,5.979-2.79c.184-.158.29-.15.471,0a12.535,12.535,0,0,0,6.5,2.874c.6.084,1.208.139,1.829.208,0,.075.015.152.015.231-.006,1.82.045,3.641-.036,5.459-.015.317-.034.632-.064.944a6.541,6.541,0,0,1,1.088-.09,6.383,6.383,0,0,1,.64.032c.082-.816.12-1.638.126-2.463C3948.6-727.731,3948.565-729.335,3948.55-730.939Z" transform="translate(-3923.415 741.043)" fill="url(#linear-gradient-2)"/>
      <path id="Path_77" data-name="Path 77" d="M3966.943-697.3c1.064-1.065,2.115-2.115,3.163-3.166a.743.743,0,0,1,.5-.261.633.633,0,0,1,.633.349.638.638,0,0,1-.058.72,1.615,1.615,0,0,1-.164.179l-3.493,3.494a.7.7,0,0,1-1.172,0l-1.721-1.72a.662.662,0,0,1-.19-.684.635.635,0,0,1,.508-.47.668.668,0,0,1,.643.218l1.2,1.2C3966.839-697.4,3966.885-697.359,3966.943-697.3Z" transform="translate(-3943.14 722.214)" fill="url(#linear-gradient-3)"/>
      <g id="Group_177" data-name="Group 177" transform="translate(16.993 16.595)">
        <path id="Path_78" data-name="Path 78" d="M3962.4-696.769a7.311,7.311,0,0,1-7.3-7.3,7.311,7.311,0,0,1,7.3-7.3,7.311,7.311,0,0,1,7.3,7.3A7.311,7.311,0,0,1,3962.4-696.769Zm0-13.106a5.81,5.81,0,0,0-5.8,5.8,5.81,5.81,0,0,0,5.8,5.8,5.81,5.81,0,0,0,5.8-5.8A5.81,5.81,0,0,0,3962.4-709.876Z" transform="translate(-3955.095 711.375)" fill="url(#linear-gradient-4)"/>
      </g>
    </g>
  </g>
</svg>
