<svg xmlns="http://www.w3.org/2000/svg" xmlns:xlink="http://www.w3.org/1999/xlink" width="82" height="82" viewBox="0 0 82 82">
  <defs>
    <linearGradient id="linear-gradient" x1="0.139" y1="1.531" x2="1.276" y2="-1.079" gradientUnits="objectBoundingBox">
      <stop offset="0" stop-color="#df1c4d"/>
      <stop offset="0.048" stop-color="#ca1e5d"/>
      <stop offset="0.119" stop-color="#b32170"/>
      <stop offset="0.196" stop-color="#a2247e"/>
      <stop offset="0.279" stop-color="#982586"/>
      <stop offset="0.383" stop-color="#952689"/>
      <stop offset="0.498" stop-color="#902a8b"/>
      <stop offset="0.634" stop-color="#833993"/>
      <stop offset="0.781" stop-color="#6d51a1"/>
      <stop offset="0.935" stop-color="#4f72b4"/>
      <stop offset="0.95" stop-color="#4c76b6"/>
    </linearGradient>
    <linearGradient id="linear-gradient-2" x1="-0.735" y1="2.035" x2="1.418" y2="-0.641" xlink:href="#linear-gradient"/>
    <linearGradient id="linear-gradient-3" x1="-1.597" y1="2.364" x2="1.223" y2="-0.303" xlink:href="#linear-gradient"/>
    <linearGradient id="linear-gradient-4" x1="-0.865" y1="1.81" x2="1.951" y2="-0.856" xlink:href="#linear-gradient"/>
    <linearGradient id="linear-gradient-5" x1="-0.015" y1="1.062" x2="3.36" y2="-1.621" xlink:href="#linear-gradient"/>
    <linearGradient id="linear-gradient-6" x1="-1.58" y1="2.103" x2="1.818" y2="-0.575" xlink:href="#linear-gradient"/>
  </defs>
  <g id="Group_219" data-name="Group 219" transform="translate(-3878.243 1257.323)">
    <g id="Group_91" data-name="Group 91" transform="translate(3879.243 -1256.323)">
      <circle id="Ellipse_14" data-name="Ellipse 14" cx="40" cy="40" r="40" fill="#fff" stroke="#72007b" stroke-miterlimit="10" stroke-width="2"/>
    </g>
    <g id="Group_92" data-name="Group 92" transform="translate(3892.639 -1235.705)">
      <path id="Path_29" data-name="Path 29" d="M3928-1189.705l.718,1.759c-5.929,2.667-9.009,7.319-9.938,13.694a76.991,76.991,0,0,0,31.678.014c-.9-6.312-3.92-10.967-9.885-13.67l.687-1.937a18.361,18.361,0,0,1,10.582,12.224,19.211,19.211,0,0,1,.559,2.929c.2,1.608-.163,2.2-1.722,2.446-3.361.536-6.724,1.183-10.11,1.4a77.258,77.258,0,0,1-21.128-1.162c-2.67-.57-2.946-.871-2.487-3.5a18.3,18.3,0,0,1,9.308-13.469c.361-.2.739-.381,1.116-.554A4.731,4.731,0,0,1,3928-1189.705Z" transform="translate(-3907.186 1209.384)" fill="url(#linear-gradient)"/>
      <path id="Path_30" data-name="Path 30" d="M3940.21-1199.551a9.493,9.493,0,0,1-9.4-9.364,9.487,9.487,0,0,1,9.376-9.394,9.478,9.478,0,0,1,9.469,9.3A9.479,9.479,0,0,1,3940.21-1199.551Zm7.389-9.322a7.2,7.2,0,0,0-7.338-7.463,7.315,7.315,0,0,0-7.456,7.273,7.337,7.337,0,0,0,7.457,7.542A7.219,7.219,0,0,0,3947.6-1208.873Z" transform="translate(-3912.789 1220.747)" fill="url(#linear-gradient-2)"/>
      <path id="Path_31" data-name="Path 31" d="M3954.935-1219.3l-.946-1.407c2.4-2.2,7-2.2,10.152-.047a9.417,9.417,0,0,1,3.6,11.2c-1.535,3.854-5.681,6.509-9.37,5.929v-1.894c2.908-.007,5.379-.847,6.907-3.462a7.78,7.78,0,0,0,.777-6.135C3965.141-1218.587,3960.909-1222.039,3954.935-1219.3Z" transform="translate(-3922.043 1222.365)" fill="url(#linear-gradient-3)"/>
      <path id="Path_32" data-name="Path 32" d="M3925.138-1203.667c-3.3.7-7.462-1.715-9.156-5.248a9.266,9.266,0,0,1,2.539-11.26,8.929,8.929,0,0,1,10.941-.592l-1.009,1.543c-2.722-1.4-5.367-1.607-7.988.026a7.27,7.27,0,0,0-3.219,8,6.828,6.828,0,0,0,6.624,5.573C3925.427-1205.58,3925.235-1204.712,3925.138-1203.667Z" transform="translate(-3906.5 1222.367)" fill="url(#linear-gradient-4)"/>
      <path id="Path_33" data-name="Path 33" d="M3912.118-1193.7l.717,1.776c-.285.176-.483.324-.7.43-5.164,2.493-7.938,6.747-9.076,12.233-.194.937.128,1.241,1.033,1.358,1.679.218,3.342.559,5.1.865l-.25,2.042c-2.268-.425-4.5-.806-6.706-1.273a1.653,1.653,0,0,1-1.394-2.03c1.088-6.651,4.145-11.955,10.408-15.029C3911.509-1193.456,3911.776-1193.556,3912.118-1193.7Z" transform="translate(-3900.815 1210.923)" fill="url(#linear-gradient-5)"/>
      <path id="Path_34" data-name="Path 34" d="M3972.133-1191.838l.726-1.868a17.355,17.355,0,0,1,6.479,4.588,19.13,19.13,0,0,1,4.708,10.8c.147,1.289-.272,1.824-1.56,2.08-2.077.413-4.154.818-6.438,1.267l-.291-2.058,6.307-1.115C3981.116-1184.527,3978.056-1189.195,3972.133-1191.838Z" transform="translate(-3929.287 1210.925)" fill="url(#linear-gradient-6)"/>
    </g>
  </g>
</svg>
