<svg xmlns="http://www.w3.org/2000/svg" xmlns:xlink="http://www.w3.org/1999/xlink" width="82" height="82" viewBox="0 0 82 82">
  <defs>
    <linearGradient id="linear-gradient" x1="-0.285" y1="1.341" x2="1.015" y2="-0.052" gradientUnits="objectBoundingBox">
      <stop offset="0" stop-color="#df1c4d"/>
      <stop offset="0.048" stop-color="#ca1e5d"/>
      <stop offset="0.119" stop-color="#b32170"/>
      <stop offset="0.196" stop-color="#a2247e"/>
      <stop offset="0.279" stop-color="#982586"/>
      <stop offset="0.383" stop-color="#952689"/>
      <stop offset="0.498" stop-color="#902a8b"/>
      <stop offset="0.634" stop-color="#833993"/>
      <stop offset="0.781" stop-color="#6d51a1"/>
      <stop offset="0.935" stop-color="#4f72b4"/>
      <stop offset="0.95" stop-color="#4c76b6"/>
    </linearGradient>
    <linearGradient id="linear-gradient-2" x1="-1.221" y1="32.035" x2="1.237" y2="-13.002" xlink:href="#linear-gradient"/>
    <linearGradient id="linear-gradient-3" x1="-1.136" y1="30.447" x2="1.321" y2="-14.528" xlink:href="#linear-gradient"/>
    <linearGradient id="linear-gradient-4" x1="-1.9" y1="32.368" x2="1.475" y2="-12.449" xlink:href="#linear-gradient"/>
    <linearGradient id="linear-gradient-5" x1="-0.832" y1="0.87" x2="5.943" y2="-1.768" xlink:href="#linear-gradient"/>
    <linearGradient id="linear-gradient-6" x1="-1.856" y1="1.339" x2="5.625" y2="-1.312" xlink:href="#linear-gradient"/>
    <linearGradient id="linear-gradient-7" x1="-1.796" y1="1.719" x2="3.32" y2="-0.86" xlink:href="#linear-gradient"/>
    <linearGradient id="linear-gradient-8" x1="-2.453" y1="2.215" x2="2.382" y2="-0.411" xlink:href="#linear-gradient"/>
  </defs>
  <g id="Group_222" data-name="Group 222" transform="translate(-3878.243 1087.205)">
    <g id="Group_100" data-name="Group 100" transform="translate(3879.243 -1086.205)">
      <circle id="Ellipse_17" data-name="Ellipse 17" cx="40" cy="40" r="40" fill="#fff" stroke="#72007b" stroke-miterlimit="10" stroke-width="2"/>
    </g>
    <g id="Group_103" data-name="Group 103" transform="translate(3897.788 -1070.367)">
      <g id="Group_101" data-name="Group 101">
        <path id="Path_40" data-name="Path 40" d="M3915.773-1017.236c-.184-.009-.34-.023-.5-.024-1.122,0-2.244,0-3.365,0-.589,0-.842-.254-.841-.838q0-8.368,0-16.735c0-.72-.006-1.441-.014-2.161a.762.762,0,0,1,.87-.833q1.788,0,3.575,0c.078,0,.156-.01.272-.018v-1.293q0-4.327,0-8.654v-10.125c0-.653.229-.893.878-.893q8.037,0,16.075,0,4.928,0,9.855,0a1.013,1.013,0,0,1,.772.321q3.415,3.426,6.841,6.841a.95.95,0,0,1,.272.731q0,3.591,0,7.181,0,2.824,0,5.649c0,.078.012.156.021.264h.4q1.712,0,3.426,0c.585,0,.841.263.843.841,0,2.283.014,4.567.014,6.85q0,5.227-.015,10.454c0,.541,0,1.082,0,1.623a.694.694,0,0,1-.79.794c-1.182,0-2.364.009-3.545-.006-.271,0-.36.062-.358.346.012,1.743.006,3.486.006,5.228,0,.11,0,.221,0,.331a.727.727,0,0,1-.839.817h-33.021c-.586,0-.835-.251-.835-.842q0-2.765,0-5.529Zm-3.231-19.124c-.008.106-.019.176-.019.245q0,8.563-.006,17.126c0,.246.087.3.313.3.9-.009,1.8,0,2.7,0h29.923c2.625,0,5.248-.006,7.872.006.306,0,.382-.085.382-.387q-.013-8.473-.007-16.946c0-.107-.01-.214-.017-.342Zm4.7-1.495h31.749v-12.475c-.15,0-.279,0-.407,0-.97-.017-1.945.014-2.91-.063a4.169,4.169,0,0,1-3.632-3.716c-.056-.959-.031-1.922-.044-2.882,0-.115-.014-.23-.021-.347h-24.734ZM3948.984-1012v-5.2h-31.743v5.2Zm-1.146-39.8-4.347-4.346a16.616,16.616,0,0,0,.014,1.937,2.628,2.628,0,0,0,1.583,2.146A7.084,7.084,0,0,0,3947.839-1051.807Z" transform="translate(-3911.059 1058.808)" fill="url(#linear-gradient)"/>
        <path id="Path_41" data-name="Path 41" d="M3939.385-1037.711q-5.361,0-10.723,0a.851.851,0,0,1-.727-.275.712.712,0,0,1,.281-1.137,1.8,1.8,0,0,1,.59-.078q7.194-.007,14.387,0,3.454,0,6.907,0a1.946,1.946,0,0,1,.417.033.729.729,0,0,1,.578.741.735.735,0,0,1-.631.7,2.227,2.227,0,0,1-.359.017h-10.72Z" transform="translate(-3917.364 1051.406)" fill="url(#linear-gradient-2)"/>
        <path id="Path_42" data-name="Path 42" d="M3939.43-1032.806h10.6c.11,0,.221,0,.331,0a.74.74,0,0,1,.727.734.749.749,0,0,1-.721.744c-.28.018-.561.006-.841.006h-20.757c-.09,0-.181,0-.271,0a.75.75,0,0,1-.752-.743.728.728,0,0,1,.748-.738c.61-.015,1.222-.005,1.833-.005Z" transform="translate(-3917.36 1048.992)" fill="url(#linear-gradient-3)"/>
        <path id="Path_43" data-name="Path 43" d="M3936.247-1045.578q3.831,0,7.661,0c.529,0,.847.294.837.763a.691.691,0,0,1-.528.682,1.724,1.724,0,0,1-.416.044q-6.656,0-13.31,0c-.641,0-1.281.012-1.921,0a.736.736,0,0,1-.8-.888.721.721,0,0,1,.781-.6q1.636-.008,3.274-.008h4.417Z" transform="translate(-3917.364 1053.816)" fill="url(#linear-gradient-4)"/>
      </g>
      <g id="Group_102" data-name="Group 102" transform="translate(9.016 27.406)">
        <path id="Path_44" data-name="Path 44" d="M3930.364-1012.306a2.777,2.777,0,0,1-.194,1.061,2.248,2.248,0,0,1-.555.807,2.5,2.5,0,0,1-.885.515,3.838,3.838,0,0,1-1.253.182h-.892v2.826a.133.133,0,0,1-.027.085.178.178,0,0,1-.084.058.828.828,0,0,1-.158.036,1.726,1.726,0,0,1-.251.016,1.728,1.728,0,0,1-.251-.016.921.921,0,0,1-.161-.036.16.16,0,0,1-.084-.058.142.142,0,0,1-.024-.085v-7.24a.421.421,0,0,1,.127-.345.44.44,0,0,1,.285-.1h1.679c.169,0,.332.007.488.021a4.561,4.561,0,0,1,.552.091,2.29,2.29,0,0,1,.649.261,2.062,2.062,0,0,1,.561.47,2.017,2.017,0,0,1,.354.646A2.5,2.5,0,0,1,3930.364-1012.306Zm-1.1.085a1.634,1.634,0,0,0-.178-.8,1.245,1.245,0,0,0-.443-.479,1.493,1.493,0,0,0-.546-.2,3.723,3.723,0,0,0-.549-.042h-.964v3.147h.94a2.186,2.186,0,0,0,.786-.121,1.48,1.48,0,0,0,.525-.336,1.416,1.416,0,0,0,.321-.516A1.908,1.908,0,0,0,3929.266-1012.221Z" transform="translate(-3925.544 1014.713)" fill="url(#linear-gradient-5)"/>
        <path id="Path_45" data-name="Path 45" d="M3940.215-1007.188a1.32,1.32,0,0,1-.012.19.407.407,0,0,1-.042.136.206.206,0,0,1-.07.079.164.164,0,0,1-.088.024h-3.766a.429.429,0,0,1-.264-.094.392.392,0,0,1-.124-.331v-7a.392.392,0,0,1,.124-.331.429.429,0,0,1,.264-.094h3.724a.163.163,0,0,1,.087.024.169.169,0,0,1,.064.079.605.605,0,0,1,.039.136,1.165,1.165,0,0,1,.015.2,1.093,1.093,0,0,1-.015.191.557.557,0,0,1-.039.133.17.17,0,0,1-.064.076.163.163,0,0,1-.087.024h-3.069v2.462h2.632a.147.147,0,0,1,.088.027.225.225,0,0,1,.067.076.4.4,0,0,1,.039.133,1.433,1.433,0,0,1,.012.2,1.253,1.253,0,0,1-.012.188.392.392,0,0,1-.039.128.178.178,0,0,1-.067.07.188.188,0,0,1-.088.021h-2.632v2.807H3940a.164.164,0,0,1,.088.024.214.214,0,0,1,.07.076.379.379,0,0,1,.042.133A1.429,1.429,0,0,1,3940.215-1007.188Z" transform="translate(-3929.435 1014.713)" fill="url(#linear-gradient-6)"/>
        <path id="Path_46" data-name="Path 46" d="M3950.953-1013.6a1.393,1.393,0,0,1-.012.2.593.593,0,0,1-.035.145.183.183,0,0,1-.061.082.138.138,0,0,1-.079.024.55.55,0,0,1-.243-.115,3.8,3.8,0,0,0-.455-.255,4.361,4.361,0,0,0-.682-.255,3.413,3.413,0,0,0-.942-.115,2.762,2.762,0,0,0-1.165.237,2.514,2.514,0,0,0-.873.655,2.939,2.939,0,0,0-.549.995,3.957,3.957,0,0,0-.19,1.249,3.936,3.936,0,0,0,.209,1.334,2.849,2.849,0,0,0,.579.982,2.416,2.416,0,0,0,.882.606,2.99,2.99,0,0,0,1.125.206,3.2,3.2,0,0,0,.736-.088,2.772,2.772,0,0,0,.695-.264v-2.286h-1.82a.164.164,0,0,1-.155-.1.748.748,0,0,1-.052-.321,1.5,1.5,0,0,1,.012-.2.421.421,0,0,1,.04-.133.2.2,0,0,1,.064-.076.158.158,0,0,1,.091-.024h2.492a.389.389,0,0,1,.133.024.378.378,0,0,1,.121.073.328.328,0,0,1,.085.134.581.581,0,0,1,.03.194v2.989a.643.643,0,0,1-.054.273.481.481,0,0,1-.231.2,4.566,4.566,0,0,1-.455.191,5,5,0,0,1-.576.176,4.9,4.9,0,0,1-.6.11,5.036,5.036,0,0,1-.6.036,4.4,4.4,0,0,1-1.625-.282,3.311,3.311,0,0,1-1.21-.8,3.5,3.5,0,0,1-.755-1.249,4.8,4.8,0,0,1-.261-1.625,4.8,4.8,0,0,1,.282-1.691,3.7,3.7,0,0,1,.793-1.292,3.541,3.541,0,0,1,1.231-.828,4.167,4.167,0,0,1,1.592-.294,4.315,4.315,0,0,1,.842.078,5.357,5.357,0,0,1,.7.186,2.744,2.744,0,0,1,.515.23,1.525,1.525,0,0,1,.288.2.423.423,0,0,1,.109.182A1.1,1.1,0,0,1,3950.953-1013.6Z" transform="translate(-3932.726 1014.779)" fill="url(#linear-gradient-7)"/>
        <path id="Path_47" data-name="Path 47" d="M3963.316-1007.15a.705.705,0,0,1,.052.215.147.147,0,0,1-.045.125.288.288,0,0,1-.161.055,2.9,2.9,0,0,1-.3.012c-.125,0-.225,0-.3-.009a.675.675,0,0,1-.171-.031.182.182,0,0,1-.084-.057.468.468,0,0,1-.052-.091l-.673-1.91h-3.262l-.642,1.885a.343.343,0,0,1-.048.095.246.246,0,0,1-.089.067.535.535,0,0,1-.164.039,2.5,2.5,0,0,1-.276.012,2.236,2.236,0,0,1-.288-.016.286.286,0,0,1-.157-.058.151.151,0,0,1-.042-.124.743.743,0,0,1,.052-.215l2.631-7.288a.319.319,0,0,1,.064-.109.256.256,0,0,1,.115-.067.878.878,0,0,1,.194-.034c.079-.006.179-.009.3-.009s.237,0,.322.009a.954.954,0,0,1,.206.034.27.27,0,0,1,.121.07.319.319,0,0,1,.067.112Zm-3.377-6.434h-.006l-1.352,3.911h2.729Z" transform="translate(-3937.274 1014.735)" fill="url(#linear-gradient-8)"/>
      </g>
    </g>
  </g>
</svg>
