<svg xmlns="http://www.w3.org/2000/svg" xmlns:xlink="http://www.w3.org/1999/xlink" width="82" height="82" viewBox="0 0 82 82">
  <defs>
    <linearGradient id="linear-gradient" x1="-0.04" y1="1.225" x2="0.96" y2="-0.226" gradientUnits="objectBoundingBox">
      <stop offset="0" stop-color="#df1c4d"/>
      <stop offset="0.048" stop-color="#ca1e5d"/>
      <stop offset="0.119" stop-color="#b32170"/>
      <stop offset="0.196" stop-color="#a2247e"/>
      <stop offset="0.279" stop-color="#982586"/>
      <stop offset="0.383" stop-color="#952689"/>
      <stop offset="0.498" stop-color="#902a8b"/>
      <stop offset="0.634" stop-color="#833993"/>
      <stop offset="0.781" stop-color="#6d51a1"/>
      <stop offset="0.935" stop-color="#4f72b4"/>
      <stop offset="0.95" stop-color="#4c76b6"/>
    </linearGradient>
    <linearGradient id="linear-gradient-2" x1="-1.181" y1="4.97" x2="1.447" y2="-2.277" xlink:href="#linear-gradient"/>
    <linearGradient id="linear-gradient-3" x1="-9.586" y1="15.497" x2="8.615" y2="-11.564" xlink:href="#linear-gradient"/>
    <linearGradient id="linear-gradient-4" x1="-10.498" y1="16.56" x2="8.12" y2="-10.632" xlink:href="#linear-gradient"/>
  </defs>
  <g id="Group_221" data-name="Group 221" transform="translate(-3718.007 1087.205)">
    <g id="Group_97" data-name="Group 97" transform="translate(3719.007 -1086.205)">
      <circle id="Ellipse_16" data-name="Ellipse 16" cx="40" cy="40" r="40" transform="translate(0 0)" fill="#fff" stroke="#72007b" stroke-miterlimit="10" stroke-width="2"/>
    </g>
    <g id="Group_98" data-name="Group 98" transform="translate(3735.994 -1064.868)">
      <path id="Path_36" data-name="Path 36" d="M3765.843-1049.116h13.875c.246,0,.492,0,.738.007a2.508,2.508,0,0,1,2.688,2.631q.053,6.04-.006,12.081a2.452,2.452,0,0,1-2.7,2.591c-.563,0-1.125.013-1.688,0-.446-.01-.648.173-.616.631.023.35,0,.7,0,1.053s.11.538.509.434a2.9,2.9,0,0,1,3.312,1.122.453.453,0,0,0,.632.156,2.935,2.935,0,0,1,4,1.237.592.592,0,0,0,.781.293,3.007,3.007,0,0,1,4.036,3.073q.011,4.142,0,8.283a9.829,9.829,0,0,1-9.4,9.565,9.764,9.764,0,0,1-7.42-2.96q-4.263-4.241-8.525-8.485c-.487-.483-1-.942-1.481-1.427a1.87,1.87,0,0,1-.027-2.735,4.279,4.279,0,0,1,5.635-.264c.408.335.817.668,1.233.992.133.1.273.3.445.225.21-.094.119-.345.12-.527.007-1.582,0-3.165,0-4.748q0-2.532,0-5.064c0-.8-.049-.85-.828-.85h-19.15c-.387,0-.775.006-1.16-.016a2.336,2.336,0,0,1-2.281-2.21c-.065-1.068-.046-2.141-.049-3.212q-.008-3.925,0-7.851a18.511,18.511,0,0,1,.067-1.948,2.411,2.411,0,0,1,2.54-2.062c1.811-.022,3.623-.012,5.434-.013Q3761.2-1049.118,3765.843-1049.116Zm-.132,1.692q-7.2,0-14.4,0c-1.008,0-1.266.258-1.267,1.241q-.005,5.7,0,11.4c0,1.094.206,1.286,1.3,1.286q9.6,0,19.207,0c1.315,0,1.321.127,1.37-1.236a2.845,2.845,0,0,1,1.977-2.679,2.792,2.792,0,0,1,3.156.664,3.289,3.289,0,0,1,.953,2.536c-.009.625.085.7.7.712.457.006.914.009,1.371,0,.942-.009,1.2-.255,1.2-1.188.007-1.548,0-3.1,0-4.643,0-2.339,0-4.679-.009-7.018,0-.781-.272-1.037-1.048-1.071-.193-.009-.387-.009-.581-.009Q3772.675-1047.425,3765.711-1047.424Zm7.771,20.97q0,2.638,0,5.275,0,1.371-.01,2.743a.791.791,0,0,1-.453.774.869.869,0,0,1-.942-.121,4.149,4.149,0,0,1-.354-.315c-.8-.761-1.6-1.528-2.413-2.285a2.437,2.437,0,0,0-2.96-.449c-.732.409-.765.62-.179,1.2,3.173,3.142,6.36,6.27,9.515,9.431a8.135,8.135,0,0,0,7.091,2.459,8.073,8.073,0,0,0,6.918-7.349c.007-.138.039-.281.05-.446.027-1.162,0-1.152,0-1.62,0-1.864-.026-3.751-.028-5.615a11.621,11.621,0,0,0-.05-1.35,1.564,1.564,0,0,0-2.355-1.029,1.4,1.4,0,0,0-.641,1.258c-.018.544,0,1.091-.031,1.634a.742.742,0,0,1-.745.747.775.775,0,0,1-.855-.63,3.093,3.093,0,0,1-.064-.731c-.008-.967.009-1.934-.014-2.9a1.292,1.292,0,0,0-.973-1.234,1.345,1.345,0,0,0-1.47.577,1.519,1.519,0,0,0-.2.859c-.008.668.01,1.338-.031,2a.833.833,0,0,1-.863.874c-.5-.008-.764-.316-.788-.92-.042-1.089.065-2.182-.058-3.268a1.264,1.264,0,0,0-1.416-1.24,1.3,1.3,0,0,0-1.253,1.364c-.02.615-.007,1.231-.011,1.846-.006.834-.269,1.21-.842,1.205s-.84-.385-.844-1.21c0-.088,0-.176,0-.264q0-4.432,0-8.862a4.274,4.274,0,0,0-.043-.787,1.3,1.3,0,0,0-1.305-1.085,1.255,1.255,0,0,0-1.3,1.078,5.928,5.928,0,0,0-.077,1.049Q3773.476-1030.119,3773.482-1026.453Z" transform="translate(-3748.514 1049.118)" fill="url(#linear-gradient)"/>
      <path id="Path_37" data-name="Path 37" d="M3770.1-1035.941c-1.213,0-2.427-.014-3.64.008a.813.813,0,0,1-.873-.586c-.769-1.889-1.571-3.764-2.332-5.656-.186-.462-.4-.735-.952-.695s-1.125-.026-1.685.011c-.471.03-.651-.16-.631-.6,0-.088,0-.175,0-.264,0-.774.069-.845.841-.848.9,0,1.793.009,2.689,0a.71.71,0,0,1,.757.517c.17.461.377.909.561,1.366.379.941.376.944,1.42.945h9.125c1.091,0,1.091,0,.7,1.038-.522,1.381-1.057,2.758-1.556,4.148a.81.81,0,0,1-.888.63C3772.46-1035.958,3771.283-1035.942,3770.1-1035.941Zm-.106-4.118c-1.143,0-2.285,0-3.428,0-.44,0-.579.17-.4.587.2.451.387.9.563,1.364a.684.684,0,0,0,.725.483q2.556-.012,5.114,0a.638.638,0,0,0,.7-.5c.133-.437.292-.866.432-1.3.174-.542.119-.628-.441-.633C3772.178-1040.068,3771.088-1040.062,3770-1040.06Z" transform="translate(-3752.749 1047.442)" fill="url(#linear-gradient-2)"/>
      <path id="Path_38" data-name="Path 38" d="M3771.252-1027.732a1.174,1.174,0,0,1-1.187-1.148,1.175,1.175,0,0,1,1.173-1.167,1.172,1.172,0,0,1,1.185,1.15A1.171,1.171,0,0,1,3771.252-1027.732Z" transform="translate(-3756.467 1042.08)" fill="url(#linear-gradient-3)"/>
      <path id="Path_39" data-name="Path 39" d="M3777.872-1028.929a1.123,1.123,0,0,1,1.165-1.109,1.132,1.132,0,0,1,1.14,1.191,1.139,1.139,0,0,1-1.168,1.112A1.133,1.133,0,0,1,3777.872-1028.929Z" transform="translate(-3759.347 1042.077)" fill="url(#linear-gradient-4)"/>
    </g>
  </g>
</svg>
