<svg xmlns="http://www.w3.org/2000/svg" xmlns:xlink="http://www.w3.org/1999/xlink" width="62" height="62" viewBox="0 0 62 62">
  <defs>
    <linearGradient id="linear-gradient" x1="-0.474" y1="1.228" x2="1.292" y2="-0.003" gradientUnits="objectBoundingBox">
      <stop offset="0" stop-color="#df1c4d"/>
      <stop offset="0.048" stop-color="#ca1e5d"/>
      <stop offset="0.119" stop-color="#b32170"/>
      <stop offset="0.196" stop-color="#a2247e"/>
      <stop offset="0.279" stop-color="#982586"/>
      <stop offset="0.383" stop-color="#952689"/>
      <stop offset="0.498" stop-color="#902a8b"/>
      <stop offset="0.634" stop-color="#833993"/>
      <stop offset="0.781" stop-color="#6d51a1"/>
      <stop offset="0.935" stop-color="#4f72b4"/>
      <stop offset="0.95" stop-color="#4c76b6"/>
    </linearGradient>
    <linearGradient id="linear-gradient-2" x1="-0.924" y1="1.683" x2="1.301" y2="-0.423" xlink:href="#linear-gradient"/>
    <linearGradient id="linear-gradient-3" x1="-3.293" y1="2.549" x2="4.132" y2="-1.541" xlink:href="#linear-gradient"/>
    <linearGradient id="linear-gradient-4" x1="-2.274" y1="4.112" x2="2.158" y2="-1.864" xlink:href="#linear-gradient"/>
  </defs>
  <g id="Group_229" data-name="Group 229" transform="translate(-3727.384 779.01)">
    <g id="Group_172" data-name="Group 172" transform="translate(3728.384 -778.01)">
      <circle id="Ellipse_23" data-name="Ellipse 23" cx="30" cy="30" r="30" fill="#fff" stroke="#72007b" stroke-miterlimit="10" stroke-width="2"/>
    </g>
    <g id="Group_173" data-name="Group 173" transform="translate(3743.98 -765.857)">
      <path id="Path_71" data-name="Path 71" d="M3779.293-719.453a2.214,2.214,0,0,0-.36-.012h-12.339a1.31,1.31,0,0,1-1.466-1.437q0-8.171,0-16.342a1.305,1.305,0,0,1,1.441-1.427q7.533,0,15.066,0a1.283,1.283,0,0,1,1.436,1.422c0,.287,0,.574,0,.861,0,.459,0,.918.006,1.377a.916.916,0,0,0,.266.676.845.845,0,0,0,.619.211.82.82,0,0,0,.795-.909l0-.271c0-.7.008-1.43,0-2.146a2.9,2.9,0,0,0-2.534-2.851,14.387,14.387,0,0,0-1.613-.06c-.239,0-.478,0-.716-.005l-.1,0v-.81c0-.891,0-1.767,0-2.642l0-.224a13.752,13.752,0,0,0-.077-1.652,5.526,5.526,0,0,0-2.376-3.806,5.558,5.558,0,0,0-4.425-.885,5.677,5.677,0,0,0-4.481,5.642c-.005.961,0,1.921,0,2.882v1.5h-.375c-.5,0-.979,0-1.46,0a2.979,2.979,0,0,0-3.139,3.129q-.01,8.154,0,16.308a2.974,2.974,0,0,0,3.18,3.161h4.661l7.64,0a1.855,1.855,0,0,0,.468-.042.8.8,0,0,0,.626-.868A.8.8,0,0,0,3779.293-719.453Zm-9.2-20.973c.011-.615.011-1.231.01-1.846,0-.971,0-1.976.046-2.957a3.9,3.9,0,0,1,3.59-3.585,3.958,3.958,0,0,1,4.286,3.214,5.4,5.4,0,0,1,.07.861q.009,1.805,0,3.61v.744c0,.006,0,.013,0,.02h-3.431c-1.493,0-2.987,0-4.48.007-.046,0-.07,0-.091,0C3770.092-740.378,3770.091-740.4,3770.092-740.425Z" transform="translate(-3763.447 750.529)" fill="url(#linear-gradient)"/>
      <path id="Path_72" data-name="Path 72" d="M3812.221-710.821q0-1.431,0-2.862a.938.938,0,0,0-.377-.825.942.942,0,0,0-.909-.014c-.215.094-.427.193-.64.292-.131.061-.261.122-.393.182a5.553,5.553,0,0,1-2.732.494,7.467,7.467,0,0,1-2.477-.757c-.143-.062-.286-.124-.43-.185a1.376,1.376,0,0,0-.891-.032,5.013,5.013,0,0,0-.746.32c-.1.048-.2.1-.295.142a5.616,5.616,0,0,1-2.8.513,7.73,7.73,0,0,1-2.63-.835l-.2-.091a1.029,1.029,0,0,0-1.007-.032.994.994,0,0,0-.379.9l0,1.811c0,1.8-.008,3.661.006,5.493a10.04,10.04,0,0,0,4.039,8.155,26.462,26.462,0,0,0,2.523,1.685c.424.259.846.519,1.262.79a1.124,1.124,0,0,0,.621.2,1.151,1.151,0,0,0,.622-.2c.391-.25.785-.492,1.18-.735.542-.334,1.1-.678,1.644-1.037a10.414,10.414,0,0,0,5.009-9.074q0-1.1,0-2.2v-.628Zm-1.7,4.652a8.335,8.335,0,0,1-3.677,6.921c-.725.527-1.513,1-2.277,1.464-.261.158-.522.315-.766.467-.015.005-.052.006-.042.015-.292-.183-.586-.363-.88-.544-.825-.5-1.677-1.027-2.456-1.609a8.324,8.324,0,0,1-3.357-5.72,8.337,8.337,0,0,1-.071-1.122q-.009-2.6,0-5.2v-1c.153.065.3.127.456.181a7.082,7.082,0,0,0,5.686-.276,1.268,1.268,0,0,1,1.259-.023,7.12,7.12,0,0,0,6.135.137q0,.854,0,1.707C3810.533-709.262,3810.537-707.7,3810.518-706.169Z" transform="translate(-3780.63 731.17)" fill="url(#linear-gradient-2)"/>
      <path id="Path_73" data-name="Path 73" d="M3784.594-709.813a2.4,2.4,0,0,0,1.544-2.21,2.413,2.413,0,0,0-1.162-2.243,2.568,2.568,0,0,0-2.05-.311,2.484,2.484,0,0,0-1.57,1.293,2.512,2.512,0,0,0-.123,2.042,2.53,2.53,0,0,0,1.457,1.455c.053.021.074.035.077.035h0a.319.319,0,0,1,.005.084c-.011.47-.009.941-.007,1.413l0,.543c0,.183,0,.367,0,.55,0,.5-.007,1.009.016,1.518a1,1,0,0,0,.447.748.747.747,0,0,0,.369.088.807.807,0,0,0,.536-.182,1.188,1.188,0,0,0,.321-.795c.017-1.239.018-2.528,0-3.833C3784.454-709.756,3784.454-709.756,3784.594-709.813Zm-.131-2.313a.824.824,0,0,1-.851.817h0a.8.8,0,0,1-.842-.81.864.864,0,0,1,.242-.621.838.838,0,0,1,.6-.243h0a.845.845,0,0,1,.605.252A.835.835,0,0,1,3784.462-712.126Z" transform="translate(-3772.952 731.189)" fill="url(#linear-gradient-3)"/>
      <path id="Path_74" data-name="Path 74" d="M3811.968-703.344a1.593,1.593,0,0,0-.269.235l-4.228,4.228c-.032.032-.064.064-.1.1l-.156-.159c-.295-.3-.583-.594-.875-.885a1.026,1.026,0,0,0-.732-.348.8.8,0,0,0-.575.271.85.85,0,0,0,.109,1.267q.538.543,1.08,1.082l.373.373a1.17,1.17,0,0,0,.787.431,1.145,1.145,0,0,0,.773-.421q2.368-2.366,4.732-4.733l.035-.035a1.784,1.784,0,0,0,.191-.211.8.8,0,0,0-.05-1.068A.813.813,0,0,0,3811.968-703.344Z" transform="translate(-3785.748 725.168)" fill="url(#linear-gradient-4)"/>
    </g>
  </g>
</svg>
