<svg xmlns="http://www.w3.org/2000/svg" xmlns:xlink="http://www.w3.org/1999/xlink" width="39" height="39" viewBox="0 0 39 39">
  <defs>
    <linearGradient id="linear-gradient" x1="0.267" y1="1.133" x2="0.837" y2="-0.337" gradientUnits="objectBoundingBox">
      <stop offset="0" stop-color="#df1c4d"/>
      <stop offset="0.048" stop-color="#ca1e5d"/>
      <stop offset="0.119" stop-color="#b32170"/>
      <stop offset="0.196" stop-color="#a2247e"/>
      <stop offset="0.279" stop-color="#982586"/>
      <stop offset="0.383" stop-color="#952689"/>
      <stop offset="0.498" stop-color="#902a8b"/>
      <stop offset="0.634" stop-color="#833993"/>
      <stop offset="0.781" stop-color="#6d51a1"/>
      <stop offset="0.935" stop-color="#4f72b4"/>
      <stop offset="0.95" stop-color="#4c76b6"/>
    </linearGradient>
    <linearGradient id="linear-gradient-2" x1="0.177" y1="2.29" x2="0.926" y2="-1.069" xlink:href="#linear-gradient"/>
    <linearGradient id="linear-gradient-3" x1="-0.014" y1="2.584" x2="1.932" y2="-5.298" xlink:href="#linear-gradient"/>
  </defs>
  <g id="Group_214" data-name="Group 214" transform="translate(-2781.973 1256.58)">
    <circle id="Ellipse_7" data-name="Ellipse 7" cx="19" cy="19" r="19" transform="translate(2782.473 -1256.08)" fill="#fff" stroke="#72007b" stroke-miterlimit="10" stroke-width="1"/>
    <g id="Group_63" data-name="Group 63" transform="translate(2787.781 -1250.615)">
      <path id="Path_10" data-name="Path 10" d="M2800.89-1224.293c.069-.509.115-1.023.211-1.527a13.449,13.449,0,0,1,7.617-9.972,12.528,12.528,0,0,1,6.416-1.3,13.411,13.411,0,0,1,11.5,7.228,12.871,12.871,0,0,1,1.484,8.154,13.366,13.366,0,0,1-2.985,6.826,13.537,13.537,0,0,1-3.863,3.241,1.244,1.244,0,0,1-.578.162q-6.128.014-12.257,0a1.156,1.156,0,0,1-.554-.153,13.608,13.608,0,0,1-6.7-9.111c-.121-.536-.159-1.09-.238-1.635-.015-.1-.034-.208-.052-.312Zm13.671,11.217c1.6,0,3.206-.049,4.8.019a3.33,3.33,0,0,0,2.344-.765c3.911-3.1,5.6-7.111,4.669-12.027a11.986,11.986,0,0,0-13.54-9.535,11.7,11.7,0,0,0-7.9,4.667,11.531,11.531,0,0,0-2,10.4,11.764,11.764,0,0,0,5.479,7.144.766.766,0,0,0,.375.091Q2811.678-1213.071,2814.561-1213.076Z" transform="translate(-2800.89 1237.117)" fill="url(#linear-gradient)"/>
      <path id="Path_11" data-name="Path 11" d="M2831.458-1216.261a8.506,8.506,0,0,0-2-4.818l-1.429,1.429c-.088.088-.174.179-.27.258a.793.793,0,0,1-1.088-.04.777.777,0,0,1-.027-1.087c.354-.387.734-.75,1.107-1.121.189-.188.386-.368.6-.576a8.8,8.8,0,0,0-4.633-2c.156.732.314,1.431.452,2.134.308,1.57.637,3.136.9,4.714a2.2,2.2,0,0,1-1.069,2.308,2.258,2.258,0,0,1-2.614-.015,2.19,2.19,0,0,1-1.046-2.293c.315-1.83.7-3.648,1.057-5.471.089-.45.189-.9.284-1.353a8.431,8.431,0,0,0-4.606,1.977c.169.164.341.327.508.493.366.364.734.727,1.095,1.1a.811.811,0,0,1,.061,1.187.809.809,0,0,1-1.187-.049c-.476-.468-.945-.943-1.418-1.415-.061-.061-.126-.118-.2-.191a8.808,8.808,0,0,0-2,4.824h.3c.668,0,1.335,0,2,0a.8.8,0,0,1,.858.8.8.8,0,0,1-.849.8q-1.549.008-3.1,0a.8.8,0,0,1-.855-.876,10.281,10.281,0,0,1,5.5-9.091,9.66,9.66,0,0,1,5.552-1.212,10.21,10.21,0,0,1,8.009,4.6,10.1,10.1,0,0,1,1.764,5.728.8.8,0,0,1-.831.848q-1.575.01-3.151,0a.8.8,0,0,1-.821-.8.8.8,0,0,1,.832-.794C2829.91-1216.266,2830.674-1216.261,2831.458-1216.261Zm-8.712-4.888-.1,0c-.246,1.35-.507,2.7-.729,4.05a.771.771,0,0,0,.8.839.8.8,0,0,0,.783-.862,6.611,6.611,0,0,0-.1-.685Q2823.075-1219.48,2822.746-1221.149Z" transform="translate(-2809.029 1229.086)" fill="url(#linear-gradient-2)"/>
      <path id="Path_12" data-name="Path 12" d="M2838.7-1170.722c-.667,0-1.338.051-2-.011a2.361,2.361,0,0,1-2.006-2.341,2.362,2.362,0,0,1,2.019-2.357c.777-.072,1.563-.049,2.345-.05a14.46,14.46,0,0,1,1.652.05,2.382,2.382,0,0,1,1.992,2.357,2.362,2.362,0,0,1-2.006,2.342C2840.033-1170.671,2839.362-1170.722,2838.7-1170.722Zm-.022-1.558c.516,0,1.032,0,1.549,0a.808.808,0,0,0,.874-.805.809.809,0,0,0-.884-.8q-1.523,0-3.044,0a.807.807,0,0,0-.875.8.811.811,0,0,0,.885.8C2837.676-1172.278,2838.174-1172.281,2838.673-1172.281Z" transform="translate(-2825.021 1193.117)" fill="url(#linear-gradient-3)"/>
    </g>
  </g>
</svg>
