<svg xmlns="http://www.w3.org/2000/svg" xmlns:xlink="http://www.w3.org/1999/xlink" width="39" height="39" viewBox="0 0 39 39">
  <defs>
    <linearGradient id="linear-gradient" x1="0.001" y1="1.103" x2="0.893" y2="-0.095" gradientUnits="objectBoundingBox">
      <stop offset="0" stop-color="#df1c4d"/>
      <stop offset="0.048" stop-color="#ca1e5d"/>
      <stop offset="0.119" stop-color="#b32170"/>
      <stop offset="0.196" stop-color="#a2247e"/>
      <stop offset="0.279" stop-color="#982586"/>
      <stop offset="0.383" stop-color="#952689"/>
      <stop offset="0.498" stop-color="#902a8b"/>
      <stop offset="0.634" stop-color="#833993"/>
      <stop offset="0.781" stop-color="#6d51a1"/>
      <stop offset="0.935" stop-color="#4f72b4"/>
      <stop offset="0.95" stop-color="#4c76b6"/>
    </linearGradient>
  </defs>
  <g id="Group_218" data-name="Group 218" transform="translate(-3309.229 1256.525)">
    <circle id="Ellipse_10" data-name="Ellipse 10" cx="19" cy="19" r="19" transform="translate(3309.729 -1256.025)" fill="#fff" stroke="#72007b" stroke-miterlimit="10" stroke-width="1"/>
    <path id="Path_20" data-name="Path 20" d="M3343.731-1225.348c.561.974,1.109,1.93,1.665,2.881a.21.21,0,0,0,.182.074,2.64,2.64,0,0,1,2.563.722c.057-.05.116-.1.169-.149q1.754-1.768,3.509-3.537c.1-.1.169-.178.087-.352a1.975,1.975,0,0,1,.668-2.474,1.9,1.9,0,0,1,2.433.034,2.007,2.007,0,0,1,.679,2.327,2.1,2.1,0,0,1-2.146,1.346,6.036,6.036,0,0,1-.834-.238c-.225.241-.491.54-.771.824q-1.48,1.5-2.972,3a.339.339,0,0,0-.107.411,4.753,4.753,0,0,1,.145.627h4.244a3.774,3.774,0,0,1,2.105-2.7,3.2,3.2,0,0,1,2.263-.22,3.729,3.729,0,0,1,2.729,3.619,3.758,3.758,0,0,1-3.058,3.433,3.719,3.719,0,0,1-4.05-3h-.826c-1.131,0-2.262,0-3.394,0a.322.322,0,0,0-.347.2,2.681,2.681,0,0,1-.9,1.039.218.218,0,0,0-.1.281q.712,2.611,1.413,5.225c.052.2.189.174.318.192a2.168,2.168,0,0,1,1.825,1.746,1.963,1.963,0,0,1-.9,2.014,1.78,1.78,0,0,1-2.128.081,2.014,2.014,0,0,1-.261-3.372.314.314,0,0,0,.1-.249c-.472-1.778-.954-3.553-1.436-5.328a.578.578,0,0,0-.045-.091,2.642,2.642,0,0,1-1.793-.466.21.21,0,0,0-.183,0c-1.16.656-2.316,1.318-3.493,1.99a3.4,3.4,0,0,1-.362,3.072,3.6,3.6,0,0,1-2.007,1.556,3.553,3.553,0,0,1-4.227-1.99,3.535,3.535,0,0,1,1.313-4.437,3.442,3.442,0,0,1,4.737.816l3.32-1.9c-.111-.365-.206-.7-.319-1.029a.316.316,0,0,0-.171-.185c-1.574-.44-3.151-.869-4.725-1.309-.185-.052-.224.074-.3.169a1.928,1.928,0,0,1-1.991.807,2.1,2.1,0,0,1-1.625-1.578,2.034,2.034,0,0,1,.979-2.222,1.862,1.862,0,0,1,2.3.19,2.255,2.255,0,0,1,.775,1.336.333.333,0,0,0,.194.218c1.506.424,3.016.835,4.524,1.252a.2.2,0,0,0,.271-.1c.2-.344.435-.67.687-1.05-.251-.438-.536-.937-.823-1.435-.253-.44-.515-.875-.759-1.32a.25.25,0,0,0-.347-.146,3.594,3.594,0,0,1-4.447-3.691,3.506,3.506,0,0,1,2.239-3.085,3.209,3.209,0,0,1,3.538.561,3.506,3.506,0,0,1,.017,5.5C3343.83-1225.437,3343.792-1225.4,3343.731-1225.348Zm.338-2.87a2.365,2.365,0,0,0-2.4-2.468,2.377,2.377,0,0,0-2.5,2.46,2.39,2.39,0,0,0,2.423,2.483A2.367,2.367,0,0,0,3344.07-1228.218Zm15.15,8.961a2.349,2.349,0,0,0-2.421-2.487,2.357,2.357,0,0,0-2.473,2.442,2.368,2.368,0,0,0,2.429,2.491A2.353,2.353,0,0,0,3359.22-1219.257Zm-19.05,5.019a2.36,2.36,0,0,0-2.386-2.508,2.355,2.355,0,0,0-2.5,2.416,2.357,2.357,0,0,0,2.347,2.518A2.355,2.355,0,0,0,3340.17-1214.238Zm4.47-5.5a1.526,1.526,0,0,0,1.614,1.637,1.536,1.536,0,0,0,1.611-1.62,1.539,1.539,0,0,0-1.6-1.637A1.524,1.524,0,0,0,3344.64-1219.738Zm4.569,9.065a.868.868,0,0,0-.957.96.88.88,0,0,0,.981.941.86.86,0,0,0,.907-.98A.844.844,0,0,0,3349.209-1210.673Zm-12.528-10.3a.87.87,0,0,0,.989-.928.875.875,0,0,0-.918-.978.876.876,0,0,0-.975.919A.869.869,0,0,0,3336.681-1220.97Zm17.056-4.608a.867.867,0,0,0,.979-.938.864.864,0,0,0-.9-.964.866.866,0,0,0-.988.951A.855.855,0,0,0,3353.737-1225.578Z" transform="translate(-17.25 -17.293)" fill="url(#linear-gradient)"/>
  </g>
</svg>
