<svg xmlns="http://www.w3.org/2000/svg" xmlns:xlink="http://www.w3.org/1999/xlink" width="39" height="39" viewBox="0 0 39 39">
  <defs>
    <linearGradient id="linear-gradient" x1="-0.017" y1="0.963" x2="1.12" y2="-0.058" gradientUnits="objectBoundingBox">
      <stop offset="0" stop-color="#df1c4d"/>
      <stop offset="0.048" stop-color="#ca1e5d"/>
      <stop offset="0.119" stop-color="#b32170"/>
      <stop offset="0.196" stop-color="#a2247e"/>
      <stop offset="0.279" stop-color="#982586"/>
      <stop offset="0.383" stop-color="#952689"/>
      <stop offset="0.498" stop-color="#902a8b"/>
      <stop offset="0.634" stop-color="#833993"/>
      <stop offset="0.781" stop-color="#6d51a1"/>
      <stop offset="0.935" stop-color="#4f72b4"/>
      <stop offset="0.95" stop-color="#4c76b6"/>
    </linearGradient>
  </defs>
  <g id="Group_215" data-name="Group 215" transform="translate(-2773.574 1090.662)">
    <g id="Group_108" data-name="Group 108" transform="translate(2774.074 -1090.162)">
      <circle id="Ellipse_19" data-name="Ellipse 19" cx="19" cy="19" r="19" transform="translate(0 0)" fill="#fff" stroke="#72007b" stroke-miterlimit="10" stroke-width="1"/>
    </g>
    <path id="Path_57" data-name="Path 57" d="M2812.9-1042.176c-.287-.146-.573-.3-.862-.439q-4.334-2.122-8.672-4.236a.8.8,0,0,1-.5-.819q.012-5.7,0-11.4a.788.788,0,0,1,.5-.8q4.642-2.256,9.272-4.536a.882.882,0,0,1,.857.005c3.041,1.5,6.081,3,9.139,4.464a1.013,1.013,0,0,1,.658,1.07q-.022,5.578,0,11.157a.833.833,0,0,1-.521.853q-4.771,2.313-9.53,4.649c-.012.006-.02.02-.029.03Zm-8.909-16.166v.169q0,5.086,0,10.172a.264.264,0,0,0,.179.276q4.064,1.983,8.124,3.973c.056.028.115.049.193.082,0-.091.012-.16.012-.23q0-5.042,0-10.085a.28.28,0,0,0-.181-.3q-4.065-1.98-8.125-3.972C2804.132-1058.282,2804.073-1058.3,2803.987-1058.342Zm9.626,14.679c.092-.04.145-.061.2-.086q4.081-2,8.164-4a.28.28,0,0,0,.168-.306q0-5.033,0-10.066c0-.07-.007-.14-.012-.229-.059.021-.1.032-.135.05-1.044.51-2.086,1.023-3.132,1.527-.129.062-.133.147-.133.26,0,.99,0,1.98,0,2.97a1.018,1.018,0,0,1-.063.382.546.546,0,0,1-.624.319.575.575,0,0,1-.431-.56c0-.83,0-1.659,0-2.489,0-.074-.007-.149-.011-.252l-.248.118c-1.166.571-2.331,1.146-3.5,1.709a.354.354,0,0,0-.237.375q.011,5,.005,10Zm-8.9-15.6c.068.038.1.057.129.072q4.034,1.975,8.071,3.944a.385.385,0,0,0,.294-.014c1.208-.583,2.413-1.175,3.619-1.765.057-.028.112-.061.176-.1a.543.543,0,0,0-.062-.044q-4.072-1.995-8.146-3.986a.259.259,0,0,0-.2-.007C2807.313-1060.541,2806.032-1059.911,2804.717-1059.268Zm16.664.01c-.055-.033-.073-.046-.092-.055q-4.053-1.984-8.109-3.962a.386.386,0,0,0-.295.014c-.9.431-1.79.872-2.684,1.31-.061.03-.12.065-.2.108.056.034.09.059.128.077q4.024,1.97,8.051,3.934a.385.385,0,0,0,.294-.008c.755-.36,1.5-.732,2.257-1.1Z" transform="translate(-19.996 -17.818)" fill="url(#linear-gradient)"/>
  </g>
</svg>
