<svg xmlns="http://www.w3.org/2000/svg" xmlns:xlink="http://www.w3.org/1999/xlink" width="39" height="39" viewBox="0 0 39 39">
  <defs>
    <linearGradient id="linear-gradient" x1="-0.423" y1="0.995" x2="0.921" y2="-0.134" gradientUnits="objectBoundingBox">
      <stop offset="0" stop-color="#df1c4d"/>
      <stop offset="0.048" stop-color="#ca1e5d"/>
      <stop offset="0.119" stop-color="#b32170"/>
      <stop offset="0.196" stop-color="#a2247e"/>
      <stop offset="0.279" stop-color="#982586"/>
      <stop offset="0.383" stop-color="#952689"/>
      <stop offset="0.498" stop-color="#902a8b"/>
      <stop offset="0.634" stop-color="#833993"/>
      <stop offset="0.781" stop-color="#6d51a1"/>
      <stop offset="0.935" stop-color="#4f72b4"/>
      <stop offset="0.95" stop-color="#4c76b6"/>
    </linearGradient>
    <linearGradient id="linear-gradient-2" x1="0.257" y1="3.788" x2="0.755" y2="-2.951" xlink:href="#linear-gradient"/>
  </defs>
  <g id="Group_217" data-name="Group 217" transform="translate(-3133.495 1256.525)">
    <g id="Group_74" data-name="Group 74" transform="translate(3133.995 -1256.025)">
      <circle id="Ellipse_12" data-name="Ellipse 12" cx="19" cy="19" r="19" transform="translate(0 0)" fill="#fff" stroke="#72007b" stroke-miterlimit="10" stroke-width="1"/>
    </g>
    <g id="Group_75" data-name="Group 75" transform="translate(3149.123 -1247.554)">
      <path id="Path_23" data-name="Path 23" d="M3200.318-1218.218a6.488,6.488,0,0,1-.454,2.482,5.243,5.243,0,0,1-1.3,1.886,5.807,5.807,0,0,1-2.071,1.205,8.969,8.969,0,0,1-2.929.426h-2.085v6.609a.321.321,0,0,1-.064.2.42.42,0,0,1-.2.135,1.95,1.95,0,0,1-.369.085,4.063,4.063,0,0,1-.589.036,4.072,4.072,0,0,1-.589-.036,2.124,2.124,0,0,1-.375-.085.38.38,0,0,1-.2-.135.349.349,0,0,1-.056-.2v-16.935a.983.983,0,0,1,.3-.808,1.034,1.034,0,0,1,.667-.241h3.929q.6,0,1.142.049a10.844,10.844,0,0,1,1.291.213,5.314,5.314,0,0,1,1.518.61,4.792,4.792,0,0,1,1.312,1.1,4.737,4.737,0,0,1,.83,1.51A5.886,5.886,0,0,1,3200.318-1218.218Zm-2.567.2a3.811,3.811,0,0,0-.418-1.872,2.912,2.912,0,0,0-1.036-1.121,3.485,3.485,0,0,0-1.276-.468,8.638,8.638,0,0,0-1.283-.1h-2.255v7.361h2.2a5.124,5.124,0,0,0,1.837-.284,3.449,3.449,0,0,0,1.227-.787,3.3,3.3,0,0,0,.752-1.206A4.44,4.44,0,0,0,3197.751-1218.019Z" transform="translate(-3189.043 1223.593)" fill="url(#linear-gradient)"/>
    </g>
    <rect id="Rectangle_14" data-name="Rectangle 14" width="17.982" height="1.822" rx="0.911" transform="translate(3144.211 -1228.202)" fill="url(#linear-gradient-2)"/>
  </g>
</svg>
