<svg xmlns="http://www.w3.org/2000/svg" xmlns:xlink="http://www.w3.org/1999/xlink" width="39" height="39" viewBox="0 0 39 39">
  <defs>
    <linearGradient id="linear-gradient" x1="0.06" y1="1.082" x2="0.914" y2="-0.049" gradientUnits="objectBoundingBox">
      <stop offset="0" stop-color="#df1c4d"/>
      <stop offset="0.048" stop-color="#ca1e5d"/>
      <stop offset="0.119" stop-color="#b32170"/>
      <stop offset="0.196" stop-color="#a2247e"/>
      <stop offset="0.279" stop-color="#982586"/>
      <stop offset="0.383" stop-color="#952689"/>
      <stop offset="0.498" stop-color="#902a8b"/>
      <stop offset="0.634" stop-color="#833993"/>
      <stop offset="0.781" stop-color="#6d51a1"/>
      <stop offset="0.935" stop-color="#4f72b4"/>
      <stop offset="0.95" stop-color="#4c76b6"/>
    </linearGradient>
    <linearGradient id="linear-gradient-2" x1="-0.534" y1="1.87" x2="1.474" y2="-0.79" xlink:href="#linear-gradient"/>
  </defs>
  <g id="Group_231" data-name="Group 231" transform="translate(-3486.439 1256.823)">
    <circle id="Ellipse_11" data-name="Ellipse 11" cx="19" cy="19" r="19" transform="translate(3486.939 -1256.323)" fill="#fff" stroke="#72007b" stroke-miterlimit="10" stroke-width="1"/>
    <g id="Group_72" data-name="Group 72" transform="translate(3492.63 -1250.632)">
      <g id="Group_70" data-name="Group 70" transform="translate(0)">
        <path id="Path_21" data-name="Path 21" d="M3535.611-1222.156a1.475,1.475,0,0,0-1.221-1.476c-.529-.1-1.057-.187-1.644-.28a.568.568,0,0,1-.477-.39c-.154-.4-.333-.838-.565-1.365a.515.515,0,0,1,.058-.557c.306-.42.626-.866.948-1.326a1.509,1.509,0,0,0-.171-2.006q-.814-.819-1.635-1.634a1.5,1.5,0,0,0-1.99-.168c-.494.348-.934.662-1.346.961a.5.5,0,0,1-.534.053c-.247-.106-.494-.209-.742-.311s-.5-.205-.747-.312a.6.6,0,0,1-.328-.4c-.061-.319-.115-.641-.167-.954-.038-.22-.075-.44-.115-.66a1.5,1.5,0,0,0-1.527-1.286q-1.146,0-2.291,0a1.517,1.517,0,0,0-1.565,1.339c-.038.228-.077.455-.117.683-.052.3-.1.6-.152.907a.519.519,0,0,1-.35.433c-.436.173-.894.365-1.4.59a.494.494,0,0,1-.539-.053c-.425-.313-.87-.634-1.323-.954a1.5,1.5,0,0,0-1.992.157c-.547.539-1.1,1.093-1.65,1.645a1.511,1.511,0,0,0-.166,2.007c.288.411.6.851.96,1.347a.507.507,0,0,1,.066.534c-.188.433-.379.9-.583,1.427a.5.5,0,0,1-.417.344c-.4.064-.813.134-1.211.2l-.4.068a1.5,1.5,0,0,0-1.286,1.507c0,.674,0,1.415,0,2.331a1.512,1.512,0,0,0,1.316,1.541l.634.109c.32.055.651.113.977.164a.52.52,0,0,1,.435.349c.184.458.383.93.59,1.4a.5.5,0,0,1-.051.539c-.323.437-.644.887-.943,1.308a1.506,1.506,0,0,0,.153,2.007c.567.573,1.127,1.131,1.663,1.66a1.5,1.5,0,0,0,1.976.149c.133-.1.266-.188.4-.282.312-.221.634-.45.947-.68a.524.524,0,0,1,.317-.111.627.627,0,0,1,.256.06c.5.221.884.38,1.248.515a.616.616,0,0,1,.444.532c.087.606.176,1.136.271,1.619a1.483,1.483,0,0,0,1.486,1.216c.767,0,1.565,0,2.371,0a1.487,1.487,0,0,0,1.492-1.232c.1-.536.187-1.062.28-1.645a.565.565,0,0,1,.391-.473c.411-.156.844-.336,1.364-.566a.514.514,0,0,1,.555.054q.448.327.9.646l.431.308a1.479,1.479,0,0,0,.89.3h.015a1.5,1.5,0,0,0,1.1-.468l.672-.671q.468-.467.935-.935a1.524,1.524,0,0,0,.175-2.054l-.014-.019c-.3-.419-.6-.854-.911-1.275a.531.531,0,0,1-.062-.573c.184-.411.371-.864.575-1.384a.534.534,0,0,1,.45-.363c.525-.082,1.084-.17,1.646-.276a1.494,1.494,0,0,0,1.245-1.5C3535.614-1220.623,3535.614-1221.4,3535.611-1222.156Zm-1.232,2.625-2.253.378c-.074.013-.148.026-.224.035a.674.674,0,0,0-.64.572,8.419,8.419,0,0,1-.922,2.219.675.675,0,0,0,.045.831c.315.433.626.874.927,1.3l.377.534.138.2-2.035,2.027-.195-.138-.5-.353c-.406-.282-.825-.575-1.232-.887a.78.78,0,0,0-1.014-.058,7.385,7.385,0,0,1-2.1.865.728.728,0,0,0-.617.7c-.068.489-.154.981-.237,1.458-.033.188-.065.378-.1.568a1.236,1.236,0,0,1-.03.135l-.068.267h-2.828l-.356-2.133c-.026-.157-.052-.319-.084-.473a.557.557,0,0,0-.427-.468,10.423,10.423,0,0,1-2.367-.969.585.585,0,0,0-.68.049l-2.109,1.5-2.031-2.031.14-.195c.12-.169.24-.34.363-.514.289-.409.587-.833.9-1.245a.755.755,0,0,0,.046-.966,8.2,8.2,0,0,1-.911-2.182.651.651,0,0,0-.6-.53c-.636-.1-1.317-.219-2.142-.369a.478.478,0,0,1-.382-.412c-.007-.627,0-1.263,0-1.879v-.335a.348.348,0,0,1,.038-.149l.007-.015.06-.145.822-.138q.8-.136,1.6-.268a.632.632,0,0,0,.567-.51,9.266,9.266,0,0,1,.955-2.336.6.6,0,0,0-.041-.712q-.444-.628-.89-1.251l-.392-.549-.061-.087-.161-.233,2.03-2.017.292.205.243.171.194.139,1.338.954a.625.625,0,0,0,.747.043,9.487,9.487,0,0,1,2.343-.985.588.588,0,0,0,.471-.514c.078-.448.154-.9.231-1.344l.132-.772c.01-.057.021-.114.034-.171l.063-.305h2.838l.245,1.434c.021.119.04.239.061.359.042.258.086.524.135.785a.577.577,0,0,0,.463.5,9.759,9.759,0,0,1,2.428,1,.6.6,0,0,0,.711-.04c.453-.323.9-.648,1.349-.968l.721-.518,2.033,2.031-1.346,1.89c-.047.068-.1.135-.144.2a.583.583,0,0,0-.041.681,9.962,9.962,0,0,1,1,2.422.551.551,0,0,0,.48.426q.677.117,1.354.231l.761.129c.057.01.113.021.171.034l.3.061Z" transform="translate(-3508.994 1234.268)" fill="url(#linear-gradient)"/>
      </g>
      <g id="Group_71" data-name="Group 71" transform="translate(7.652 7.647)">
        <path id="Path_22" data-name="Path 22" d="M3544.047-1207.24a5.629,5.629,0,0,0-4.006-1.655h0a5.664,5.664,0,0,0-5.656,5.65,5.63,5.63,0,0,0,1.653,4.01,5.623,5.623,0,0,0,4,1.661h0a5.628,5.628,0,0,0,4-1.655,5.617,5.617,0,0,0,1.658-4A5.621,5.621,0,0,0,3544.047-1207.24Zm-4,8.431h0a4.427,4.427,0,0,1-4.429-4.414,4.41,4.41,0,0,1,1.3-3.145,4.393,4.393,0,0,1,3.124-1.293h.008a4.438,4.438,0,0,1,4.421,4.426v0A4.427,4.427,0,0,1,3540.05-1198.809Z" transform="translate(-3534.383 1208.895)" fill="url(#linear-gradient-2)"/>
      </g>
    </g>
  </g>
</svg>
