<svg xmlns="http://www.w3.org/2000/svg" xmlns:xlink="http://www.w3.org/1999/xlink" width="39" height="39" viewBox="0 0 39 39">
  <defs>
    <linearGradient id="linear-gradient" x1="0.146" y1="1.222" x2="0.965" y2="-0.15" gradientUnits="objectBoundingBox">
      <stop offset="0" stop-color="#df1c4d"/>
      <stop offset="0.048" stop-color="#ca1e5d"/>
      <stop offset="0.119" stop-color="#b32170"/>
      <stop offset="0.196" stop-color="#a2247e"/>
      <stop offset="0.279" stop-color="#982586"/>
      <stop offset="0.383" stop-color="#952689"/>
      <stop offset="0.498" stop-color="#902a8b"/>
      <stop offset="0.634" stop-color="#833993"/>
      <stop offset="0.781" stop-color="#6d51a1"/>
      <stop offset="0.935" stop-color="#4f72b4"/>
      <stop offset="0.95" stop-color="#4c76b6"/>
    </linearGradient>
    <linearGradient id="linear-gradient-2" x1="-6.62" y1="12.493" x2="7.584" y2="-11.436" xlink:href="#linear-gradient"/>
  </defs>
  <g id="Group_216" data-name="Group 216" transform="translate(-2957.762 1256.525)">
    <ellipse id="Ellipse_8" data-name="Ellipse 8" cx="19" cy="19" rx="19" ry="19" transform="translate(2958.262 -1256.025)" fill="#fff" stroke="#72007b" stroke-miterlimit="10" stroke-width="1"/>
    <g id="Group_65" data-name="Group 65" transform="translate(2964.338 -1252.065)">
      <path id="Path_13" data-name="Path 13" d="M2991.98-1215.988h-9.96a5.864,5.864,0,0,1-.716,0,2.494,2.494,0,0,1-2.133-1.308,2.745,2.745,0,0,1-.26-1.225c-.006-.706,0-1.412,0-2.119,0-.9.005-1.806.007-2.708,0-1.813.008-3.626.006-5.438,0-1.352-.016-2.7-.018-4.057a2.571,2.571,0,0,1,.613-1.74,2.439,2.439,0,0,1,1.976-.839c.962.009,1.924.008,2.886.011.07,0,.14-.008.21-.006a.913.913,0,0,0,.52-.144l6.1-3.724,4.026-2.458a2.028,2.028,0,0,1,2.831.67q.931,1.5,1.847,3.017c.386.636.762,1.278,1.142,1.918a1.305,1.305,0,0,0,.852.7,2.54,2.54,0,0,0,.522.043,2.682,2.682,0,0,1,1.228.243,2.19,2.19,0,0,1,1.215,1.623,3.4,3.4,0,0,1,.065.669q0,7.162,0,14.324a2.851,2.851,0,0,1-.185,1.093,2.328,2.328,0,0,1-2.184,1.46Zm11.546-6.651h-4.92c-.176,0-.351,0-.527-.007-.582-.007-1.166,0-1.747-.027a3.368,3.368,0,0,1-2.4-1.147,3.436,3.436,0,0,1-.931-2.139,3.4,3.4,0,0,1,.409-1.858,3.481,3.481,0,0,1,3.015-1.936c.388-.023.78-.01,1.169-.011q1.628,0,3.257,0c.748,0,1.5,0,2.245.007h.4c.009-.23.024-.449.025-.669q0-1.244,0-2.488a2.112,2.112,0,0,0-.018-.3.8.8,0,0,0-.527-.69,1.426,1.426,0,0,0-.472-.083q-10.547-.006-21.093,0c-.06,0-.119,0-.179,0a.848.848,0,0,0-.869.7,1.45,1.45,0,0,0-.032.3q-.007,1.428-.008,2.856,0,5.74,0,11.479c0,.105,0,.211.011.315a.847.847,0,0,0,.71.847,1.751,1.751,0,0,0,.345.031q10.53,0,21.061,0c.06,0,.12,0,.179,0a.857.857,0,0,0,.841-.655,1.587,1.587,0,0,0,.047-.385q.005-2,0-4.005Zm-.019-5.7h-.118c-.586,0-1.173,0-1.76,0-1.661,0-3.323,0-4.984.01a2.879,2.879,0,0,0-.7.074,2.11,2.11,0,0,0-1.524,1.925,2.134,2.134,0,0,0,1.348,2.128,2.946,2.946,0,0,0,1.108.151q3.14,0,6.281,0a2.917,2.917,0,0,0,.346-.04Zm-15.765-7.166.011.021h12.072c-.066-.132-.118-.255-.186-.368q-1.288-2.125-2.581-4.246a2.476,2.476,0,0,0-.225-.33.588.588,0,0,0-.634-.2,1.441,1.441,0,0,0-.354.155q-3.8,2.292-7.594,4.591A6.351,6.351,0,0,0,2987.742-1235.508Z" transform="translate(-2978.904 1242.063)" fill="url(#linear-gradient)"/>
      <path id="Path_14" data-name="Path 14" d="M3039.49-1188.781a.732.732,0,0,1,.744.749.741.741,0,0,1-.748.748.743.743,0,0,1-.753-.76A.736.736,0,0,1,3039.49-1188.781Z" transform="translate(-3021.763 1203.894)" fill="url(#linear-gradient-2)"/>
    </g>
  </g>
</svg>
