<svg xmlns="http://www.w3.org/2000/svg" xmlns:xlink="http://www.w3.org/1999/xlink" width="82" height="82" viewBox="0 0 82 82">
  <defs>
    <linearGradient id="linear-gradient" x1="-0.494" y1="1.662" x2="1.14" y2="-0.222" gradientUnits="objectBoundingBox">
      <stop offset="0" stop-color="#df1c4d"/>
      <stop offset="0.048" stop-color="#ca1e5d"/>
      <stop offset="0.119" stop-color="#b32170"/>
      <stop offset="0.196" stop-color="#a2247e"/>
      <stop offset="0.279" stop-color="#982586"/>
      <stop offset="0.383" stop-color="#952689"/>
      <stop offset="0.498" stop-color="#902a8b"/>
      <stop offset="0.634" stop-color="#833993"/>
      <stop offset="0.781" stop-color="#6d51a1"/>
      <stop offset="0.935" stop-color="#4f72b4"/>
      <stop offset="0.95" stop-color="#4c76b6"/>
    </linearGradient>
  </defs>
  <g id="Group_223" data-name="Group 223" transform="translate(-4038.478 1257.323)">
    <g id="Group_94" data-name="Group 94" transform="translate(4039.478 -1256.323)">
      <circle id="Ellipse_15" data-name="Ellipse 15" cx="40" cy="40" r="40" fill="#fff" stroke="#72007b" stroke-miterlimit="10" stroke-width="2"/>
    </g>
    <path id="Path_35" data-name="Path 35" d="M4105.856-1222.479c5.979,6.25,8.281,13.461,6.4,21.692a22.847,22.847,0,0,1-10.671,14.559,24.627,24.627,0,0,1-9.733,3.518,25.835,25.835,0,0,1-10.459-.622,24.918,24.918,0,0,1-9.2-4.65,23.906,23.906,0,0,1-6.422-7.9c-.232.309-.42.544-.591.79a17.914,17.914,0,0,0-2.68,5.025,5.335,5.335,0,0,0-.223,1.68,1.687,1.687,0,0,0,1.646,1.728,18.4,18.4,0,0,0,2.4-.025c.167,0,.333-.058.5-.065a.764.764,0,0,1,.865.605.7.7,0,0,1-.544.922,9.913,9.913,0,0,1-4.992.114,2.741,2.741,0,0,1-1.928-3.549,13.478,13.478,0,0,1,.846-2.645,22.63,22.63,0,0,1,3.734-5.931.591.591,0,0,0,.069-.722,22.311,22.311,0,0,1-1.466-8.59,23.455,23.455,0,0,1,16.276-21.528,25.162,25.162,0,0,1,24.2,3.951,1.053,1.053,0,0,0,1.1.2,15.969,15.969,0,0,1,4.777-.863,7.831,7.831,0,0,1,1.562.135,3.807,3.807,0,0,1,3.323,3.316,13.152,13.152,0,0,1-.06,2.914.8.8,0,0,1-.971.734.842.842,0,0,1-.68-1.048,8.06,8.06,0,0,0,.072-1.54,2.788,2.788,0,0,0-2.345-2.6A10.125,10.125,0,0,0,4105.856-1222.479Zm-11.407,25.321c.127-1.289.27-2.561.374-3.836a61.5,61.5,0,0,0-.382-13.487.564.564,0,0,0-.384-.371c-1.022-.113-2.049-.2-3.077-.253a1.607,1.607,0,0,0-.885.206c-2.795,1.788-5.572,3.6-8.362,5.4a.831.831,0,0,0-.432.793c.051,2.528.048,5.058.142,7.583.05,1.328.261,2.649.4,3.951A51.787,51.787,0,0,0,4094.449-1197.158Zm1.7-17.437a66.343,66.343,0,0,1,0,17.278c1.283-.261,2.492-.473,3.681-.758a24.953,24.953,0,0,0,8.259-3.355,8.067,8.067,0,0,0,2.506-2.488,3.588,3.588,0,0,0-.015-4.1,10.123,10.123,0,0,0-1.959-2.1,16.912,16.912,0,0,0-4.983-2.625A37.184,37.184,0,0,0,4096.146-1214.6Zm-11.5-13.068a23.317,23.317,0,0,0-13.467,6.835,20.591,20.591,0,0,0-5.5,10.106c4.246-3.464,9.413-4.677,14.7-5.566C4081.172-1220.281,4082.043-1224.209,4084.646-1227.663Zm25.993,26.339c-3.83,2.618-4.707,3.16-7.7,4.028-2.159.625-4.385,1.042-6.587,1.527-.338.075-.489.168-.557.517-.231,1.207-.473,2.415-.792,3.6a19.912,19.912,0,0,1-3.044,6.9c-.09.123-.176.25-.289.41C4101.092-1185.582,4108.875-1192.809,4110.639-1201.324Zm-30.261,5.657a1.74,1.74,0,0,0-.179-.052,36.757,36.757,0,0,1-11-3.22.591.591,0,0,0-.507.1c-.477.426-.905.9-1.381,1.33a.517.517,0,0,0-.111.737,22.761,22.761,0,0,0,15.7,12.146c.541.13,1.1.2,1.75.322C4082.027-1187.776,4081.17-1191.713,4080.378-1195.667Zm-.287-18.956c-1.1.216-2.141.4-3.172.631a26.76,26.76,0,0,0-8.187,3.115,9.134,9.134,0,0,0-2.878,2.583,3.766,3.766,0,0,0-.384,3.959,8.153,8.153,0,0,0,3.162,3.2.686.686,0,0,0,.154-.063,118.957,118.957,0,0,1,10.669-8.665.618.618,0,0,0,.249-.382C4079.841-1211.667,4079.958-1213.084,4080.091-1214.623Zm2.1,19.156a3.96,3.96,0,0,0,.028.439,28.574,28.574,0,0,0,1.922,6.563,15.857,15.857,0,0,0,1.956,3.275c1.248,1.553,2.786,1.533,4.08.021a11.821,11.821,0,0,0,1.558-2.394,27.886,27.886,0,0,0,2.273-7.236c.042-.214.065-.43.1-.673A59.388,59.388,0,0,1,4082.19-1195.467Zm11.458-23.365a24.006,24.006,0,0,0-2.013-5.759,11.693,11.693,0,0,0-1.613-2.36,2.294,2.294,0,0,0-3.748-.016,11.557,11.557,0,0,0-1.693,2.5,27.076,27.076,0,0,0-2.267,7.074c-.059.285-.09.575-.122.779,2.573-.054,5.08-.1,7.585-.162a.945.945,0,0,0,.424-.094C4091.345-1217.511,4092.48-1218.164,4093.649-1218.832Zm16.988,8.256a2.733,2.733,0,0,0-.031-.387,21.749,21.749,0,0,0-6.289-10.652.6.6,0,0,0-.78-.122c-2.369,1.095-4.751,2.165-7.113,3.272-.9.422-.824.45-.707,1.4.081.654.372.849,1.03.946a36.075,36.075,0,0,1,8.35,2.21A18.34,18.34,0,0,1,4110.637-1210.576Zm-31.169,2.715a110.089,110.089,0,0,0-9.27,7.6,33.886,33.886,0,0,0,9.786,2.873C4079.811-1200.9,4079.641-1204.359,4079.467-1207.86Zm12.143-19.8a21.136,21.136,0,0,1,3.559,7.935l7.3-3.435A23.617,23.617,0,0,0,4091.61-1227.659Zm-4.4,12.572-.027-.135-5.322.343-.39,3.553Zm-19.741,15.159-1.746-1.344-.114.071.7,2.33Zm26.521-17.231-.967.573,1.124.086Z" transform="translate(-8.919 -10.105)" fill="url(#linear-gradient)"/>
  </g>
</svg>
